<svg xmlns="http://www.w3.org/2000/svg" viewBox="0 0 37 23.3"><g style="display:inline"><path d="M81.29 97.32c-7.05.82-13.61 1.12-20.65 2.02-7.2.58-8.51 5.98-7.15 12.14l8.72-1.22c2.95-.41 5.93-.58 8.9-.69l15.19-.23-.06-4.3c.16-2.72-.16-7.94-4.95-7.72m5 15.02-14.81.44c-3.2.04-6.4.35-9.58.76l-7.83 1 .31 2c-2.45.27-3.92 3.69-1.74 4.06H87.6c1.48 0 1.46-4.31-1.3-5.18z" style="fill:#000" transform="translate(-51.58 -97.32)"/><path d="m55.96 111.9 7.37-1.05a60 60 175.5 0 1 7.53-.6l12.83-.2v2.6l-12.53.38a81 81 175.37 0 0-8.1.66l-6.6.87z" style="fill:#fc0" transform="matrix(1.1831 0 0 1.1567 -64.3 -115.28)"/></g></svg>