<?xml version="1.0" encoding="UTF-8" standalone="no"?>
<svg
   height="100%"
   viewBox="0 0 36.992642 23.279489"
   version="1.1"
   id="svg1"
   xmlns="http://www.w3.org/2000/svg"
   xmlns:svg="http://www.w3.org/2000/svg"><defs
     id="defs1" /><g
     id="layer1"
     transform="translate(-51.579592,-97.317289)"
     style="display:inline"><path
       id="path3"
       style="fill: #000000"
       d="m 81.288611,97.324233 c -7.045391,0.81885 -13.609214,1.117974 -20.647215,2.015397 -7.210051,0.580649 -8.512532,5.98052 -7.150974,12.13555 l 8.719846,-1.21408 c 2.952798,-0.41146 5.928235,-0.58114 8.90893,-0.68644 l 15.180008,-0.23503 -0.05663,-4.29421 c 0.156406,-2.72353 -0.163394,-7.94456 -4.953965,-7.721187 z m 5.010595,15.015397 -14.820186,0.44457 c -3.205215,0.0362 -6.403324,0.34934 -9.58135,0.75824 l -7.823673,1.00679 0.308774,1.98674 c -2.451274,0.27834 -3.919456,3.69409 -1.741375,4.06081 h 34.953228 c 1.479402,0 1.454764,-4.30889 -1.295418,-5.17536 z" /><path
       style="fill: #FFCC00"
       d="m 55.959133,111.89962 7.370106,-1.04961 a 60.163621,60.163621 175.49372 0 1 7.529922,-0.59345 l 12.830303,-0.20319 v 2.59359 l -12.526178,0.38435 a 81.126952,81.126952 175.37225 0 0 -8.098258,0.65552 l -6.612818,0.87036 z"
       id="path4"
       transform="matrix(1.1831371,0,0,1.1566966,-12.716904,-17.95873)" /></g></svg>