<svg xmlns="http://www.w3.org/2000/svg" xmlns:xlink="http://www.w3.org/1999/xlink" contentStyleType="text/css" data-diagram-type="CLASS" height="522px" preserveAspectRatio="none" style="width:673px;height:522px;" version="1.1" viewBox="0 0 673 522" width="673px" zoomAndPan="magnify"><defs/><g><!--class Entity--><g class="entity" data-entity="Entity" data-source-line="5" data-uid="ent0002" id="entity_Entity"><rect fill="#F1F1F1" height="83.2188" rx="2.5" ry="2.5" style="stroke:#181818;stroke-width:0.5;" width="206.5166" x="86" y="7"/><ellipse cx="167.5015" cy="23" fill="#ADD1B2" rx="11" ry="11" style="stroke:#181818;stroke-width:1;"/><path d="M170.2671,18.875 Q170.4233,18.6563 170.6108,18.5469 Q170.7983,18.4375 171.0171,18.4375 Q171.3921,18.4375 171.6265,18.7031 Q171.8608,18.9531 171.8608,19.5625 L171.8608,21.0156 Q171.8608,21.625 171.6265,21.8906 Q171.3921,22.1563 171.0171,22.1563 Q170.6733,22.1563 170.4702,21.9531 Q170.2671,21.7656 170.1577,21.25 Q170.1108,20.8906 169.9233,20.7031 Q169.5952,20.3281 168.9858,20.1094 Q168.3765,19.8906 167.7515,19.8906 Q166.9858,19.8906 166.3452,20.2188 Q165.7202,20.5469 165.2202,21.2969 Q164.7358,22.0469 164.7358,23.0781 L164.7358,24.1719 Q164.7358,25.4063 165.6265,26.2344 Q166.5171,27.0469 168.1108,27.0469 Q169.0483,27.0469 169.7046,26.7969 Q170.0952,26.6406 170.5171,26.2031 Q170.7827,25.9375 170.9233,25.8594 Q171.0796,25.7813 171.2827,25.7813 Q171.6108,25.7813 171.8608,26.0469 Q172.1265,26.2969 172.1265,26.6406 Q172.1265,26.9844 171.7827,27.3906 Q171.2827,27.9688 170.4858,28.2969 Q169.4077,28.75 168.1108,28.75 Q166.5952,28.75 165.3921,28.125 Q164.4077,27.625 163.7202,26.5625 Q163.0327,25.4844 163.0327,24.2031 L163.0327,23.0469 Q163.0327,21.7188 163.6421,20.5781 Q164.2671,19.4219 165.3608,18.8125 Q166.4546,18.1875 167.689,18.1875 Q168.4233,18.1875 169.064,18.3594 Q169.7202,18.5156 170.2671,18.875 Z " fill="#000000"/><text fill="#000000" font-family="sans-serif" font-size="14" lengthAdjust="spacing" textLength="35.0137" x="188.0015" y="28.7285">Entity</text><line style="stroke:#181818;stroke-width:0.5;" x1="87" x2="291.5166" y1="39" y2="39"/><line style="stroke:#181818;stroke-width:0.5;" x1="87" x2="291.5166" y1="47" y2="47"/><ellipse cx="97" cy="61.3047" fill="#84BE84" rx="3" ry="3" style="stroke:#038048;stroke-width:1;"/><text fill="#000000" font-family="sans-serif" font-size="14" lengthAdjust="spacing" textLength="168.8271" x="106" y="65.5332">Kill(killedBy: Objects) : void</text><ellipse cx="97" cy="78.9141" fill="#84BE84" rx="3" ry="3" style="stroke:#038048;stroke-width:1;"/><text fill="#000000" font-family="sans-serif" font-size="14" lengthAdjust="spacing" textLength="180.5166" x="106" y="83.1426">Move(velocity: Vector2): bool</text></g><!--class Player--><g class="entity" data-entity="Player" data-source-line="10" data-uid="ent0003" id="entity_Player"><rect fill="#F1F1F1" height="65.6094" rx="2.5" ry="2.5" style="stroke:#181818;stroke-width:0.5;" width="190.9375" x="7" y="195"/><ellipse cx="78.3774" cy="211" fill="#ADD1B2" rx="11" ry="11" style="stroke:#181818;stroke-width:1;"/><path d="M81.1431,206.875 Q81.2993,206.6563 81.4868,206.5469 Q81.6743,206.4375 81.8931,206.4375 Q82.2681,206.4375 82.5024,206.7031 Q82.7368,206.9531 82.7368,207.5625 L82.7368,209.0156 Q82.7368,209.625 82.5024,209.8906 Q82.2681,210.1563 81.8931,210.1563 Q81.5493,210.1563 81.3462,209.9531 Q81.1431,209.7656 81.0337,209.25 Q80.9868,208.8906 80.7993,208.7031 Q80.4712,208.3281 79.8618,208.1094 Q79.2524,207.8906 78.6274,207.8906 Q77.8618,207.8906 77.2212,208.2188 Q76.5962,208.5469 76.0962,209.2969 Q75.6118,210.0469 75.6118,211.0781 L75.6118,212.1719 Q75.6118,213.4063 76.5024,214.2344 Q77.3931,215.0469 78.9868,215.0469 Q79.9243,215.0469 80.5806,214.7969 Q80.9712,214.6406 81.3931,214.2031 Q81.6587,213.9375 81.7993,213.8594 Q81.9556,213.7813 82.1587,213.7813 Q82.4868,213.7813 82.7368,214.0469 Q83.0024,214.2969 83.0024,214.6406 Q83.0024,214.9844 82.6587,215.3906 Q82.1587,215.9688 81.3618,216.2969 Q80.2837,216.75 78.9868,216.75 Q77.4712,216.75 76.2681,216.125 Q75.2837,215.625 74.5962,214.5625 Q73.9087,213.4844 73.9087,212.2031 L73.9087,211.0469 Q73.9087,209.7188 74.5181,208.5781 Q75.1431,207.4219 76.2368,206.8125 Q77.3306,206.1875 78.5649,206.1875 Q79.2993,206.1875 79.9399,206.3594 Q80.5962,206.5156 81.1431,206.875 Z " fill="#000000"/><text fill="#000000" font-family="sans-serif" font-size="14" lengthAdjust="spacing" textLength="39.6826" x="98.8774" y="216.7285">Player</text><line style="stroke:#181818;stroke-width:0.5;" x1="8" x2="196.9375" y1="227" y2="227"/><line style="stroke:#181818;stroke-width:0.5;" x1="8" x2="196.9375" y1="235" y2="235"/><ellipse cx="18" cy="249.3047" fill="#84BE84" rx="3" ry="3" style="stroke:#038048;stroke-width:1;"/><text fill="#000000" font-family="sans-serif" font-size="14" lengthAdjust="spacing" textLength="164.9375" x="27" y="253.5332">Kill(killedBy: Objects): void</text></g><!--class Enemy--><g class="entity" data-entity="Enemy" data-source-line="14" data-uid="ent0004" id="entity_Enemy"><rect fill="#F1F1F1" height="153.6563" rx="2.5" ry="2.5" style="stroke:#181818;stroke-width:0.5;" width="356.7021" x="233" y="151"/><ellipse cx="385.3149" cy="167" fill="#ADD1B2" rx="11" ry="11" style="stroke:#181818;stroke-width:1;"/><path d="M388.0806,162.875 Q388.2368,162.6563 388.4243,162.5469 Q388.6118,162.4375 388.8306,162.4375 Q389.2056,162.4375 389.4399,162.7031 Q389.6743,162.9531 389.6743,163.5625 L389.6743,165.0156 Q389.6743,165.625 389.4399,165.8906 Q389.2056,166.1563 388.8306,166.1563 Q388.4868,166.1563 388.2837,165.9531 Q388.0806,165.7656 387.9712,165.25 Q387.9243,164.8906 387.7368,164.7031 Q387.4087,164.3281 386.7993,164.1094 Q386.1899,163.8906 385.5649,163.8906 Q384.7993,163.8906 384.1587,164.2188 Q383.5337,164.5469 383.0337,165.2969 Q382.5493,166.0469 382.5493,167.0781 L382.5493,168.1719 Q382.5493,169.4063 383.4399,170.2344 Q384.3306,171.0469 385.9243,171.0469 Q386.8618,171.0469 387.5181,170.7969 Q387.9087,170.6406 388.3306,170.2031 Q388.5962,169.9375 388.7368,169.8594 Q388.8931,169.7813 389.0962,169.7813 Q389.4243,169.7813 389.6743,170.0469 Q389.9399,170.2969 389.9399,170.6406 Q389.9399,170.9844 389.5962,171.3906 Q389.0962,171.9688 388.2993,172.2969 Q387.2212,172.75 385.9243,172.75 Q384.4087,172.75 383.2056,172.125 Q382.2212,171.625 381.5337,170.5625 Q380.8462,169.4844 380.8462,168.2031 L380.8462,167.0469 Q380.8462,165.7188 381.4556,164.5781 Q382.0806,163.4219 383.1743,162.8125 Q384.2681,162.1875 385.5024,162.1875 Q386.2368,162.1875 386.8774,162.3594 Q387.5337,162.5156 388.0806,162.875 Z " fill="#000000"/><text fill="#000000" font-family="sans-serif" font-size="14" lengthAdjust="spacing" textLength="43.5723" x="405.8149" y="172.7285">Enemy</text><line style="stroke:#181818;stroke-width:0.5;" x1="234" x2="588.7021" y1="183" y2="183"/><ellipse cx="244" cy="197.3047" fill="#84BE84" rx="3" ry="3" style="stroke:#038048;stroke-width:1;"/><text fill="#000000" font-family="sans-serif" font-size="14" lengthAdjust="spacing" textLength="307.3506" x="253" y="201.5332">Enemy(code: Objects, directions: List&lt;Direction&gt;)</text><line style="stroke:#181818;stroke-width:1;" x1="234" x2="588.7021" y1="208.6094" y2="208.6094"/><ellipse cx="244" cy="222.9141" fill="#84BE84" rx="3" ry="3" style="stroke:#038048;stroke-width:1;"/><text fill="#000000" font-family="sans-serif" font-size="14" lengthAdjust="spacing" textLength="164.9375" x="253" y="227.1426">Kill(killedBy: Objects): void</text><ellipse cx="244" cy="240.5234" fill="#84BE84" rx="3" ry="3" style="stroke:#038048;stroke-width:1;"/><text fill="#000000" font-family="sans-serif" font-size="14" lengthAdjust="spacing" textLength="180.5166" x="253" y="244.752">Move(velocity: Vector2): bool</text><ellipse cx="244" cy="258.1328" fill="#84BE84" rx="3" ry="3" style="stroke:#038048;stroke-width:1;"/><text fill="#000000" font-family="sans-serif" font-size="14" lengthAdjust="spacing" textLength="87.9307" x="253" y="262.3613">Update(): void</text><ellipse cx="244" cy="275.7422" fill="#84BE84" rx="3" ry="3" style="stroke:#038048;stroke-width:1;"/><text fill="#000000" font-family="sans-serif" font-size="14" lengthAdjust="spacing" textLength="252.8955" x="253" y="279.9707">CheckMovement(position: Vector2): bool</text><ellipse cx="244" cy="293.3516" fill="#84BE84" rx="3" ry="3" style="stroke:#038048;stroke-width:1;"/><text fill="#000000" font-family="sans-serif" font-size="14" lengthAdjust="spacing" textLength="330.7021" x="253" y="297.5801">CanMoveTo(code: Objects, movingTo: Vector2): bool</text></g><!--class Bug--><g class="entity" data-entity="Bug" data-source-line="24" data-uid="ent0005" id="entity_Bug"><rect fill="#F1F1F1" height="65.6094" rx="2.5" ry="2.5" style="stroke:#181818;stroke-width:0.5;" width="340.3506" x="89.5" y="450"/><ellipse cx="242.9702" cy="466" fill="#ADD1B2" rx="11" ry="11" style="stroke:#181818;stroke-width:1;"/><path d="M245.7358,461.875 Q245.8921,461.6563 246.0796,461.5469 Q246.2671,461.4375 246.4858,461.4375 Q246.8608,461.4375 247.0952,461.7031 Q247.3296,461.9531 247.3296,462.5625 L247.3296,464.0156 Q247.3296,464.625 247.0952,464.8906 Q246.8608,465.1563 246.4858,465.1563 Q246.1421,465.1563 245.939,464.9531 Q245.7358,464.7656 245.6265,464.25 Q245.5796,463.8906 245.3921,463.7031 Q245.064,463.3281 244.4546,463.1094 Q243.8452,462.8906 243.2202,462.8906 Q242.4546,462.8906 241.814,463.2188 Q241.189,463.5469 240.689,464.2969 Q240.2046,465.0469 240.2046,466.0781 L240.2046,467.1719 Q240.2046,468.4063 241.0952,469.2344 Q241.9858,470.0469 243.5796,470.0469 Q244.5171,470.0469 245.1733,469.7969 Q245.564,469.6406 245.9858,469.2031 Q246.2515,468.9375 246.3921,468.8594 Q246.5483,468.7813 246.7515,468.7813 Q247.0796,468.7813 247.3296,469.0469 Q247.5952,469.2969 247.5952,469.6406 Q247.5952,469.9844 247.2515,470.3906 Q246.7515,470.9688 245.9546,471.2969 Q244.8765,471.75 243.5796,471.75 Q242.064,471.75 240.8608,471.125 Q239.8765,470.625 239.189,469.5625 Q238.5015,468.4844 238.5015,467.2031 L238.5015,466.0469 Q238.5015,464.7188 239.1108,463.5781 Q239.7358,462.4219 240.8296,461.8125 Q241.9233,461.1875 243.1577,461.1875 Q243.8921,461.1875 244.5327,461.3594 Q245.189,461.5156 245.7358,461.875 Z " fill="#000000"/><text fill="#000000" font-family="sans-serif" font-size="14" lengthAdjust="spacing" textLength="24.9102" x="263.4702" y="471.7285">Bug</text><line style="stroke:#181818;stroke-width:0.5;" x1="90.5" x2="428.8506" y1="482" y2="482"/><line style="stroke:#181818;stroke-width:0.5;" x1="90.5" x2="428.8506" y1="490" y2="490"/><ellipse cx="100.5" cy="504.3047" fill="#84BE84" rx="3" ry="3" style="stroke:#038048;stroke-width:1;"/><text fill="#000000" font-family="sans-serif" font-size="14" lengthAdjust="spacing" textLength="314.3506" x="109.5" y="508.5332">Enemy(code: Objects, directions: List&lt;Directions&gt;)</text></g><!--class Teeth--><g class="entity" data-entity="Teeth" data-source-line="3" data-uid="ent0009" id="entity_Teeth"><rect fill="#F1F1F1" height="65.6094" rx="2.5" ry="2.5" style="stroke:#181818;stroke-width:0.5;" width="195.6338" x="464.5" y="450"/><ellipse cx="540.167" cy="466" fill="#ADD1B2" rx="11" ry="11" style="stroke:#181818;stroke-width:1;"/><path d="M542.9326,461.875 Q543.0889,461.6563 543.2764,461.5469 Q543.4639,461.4375 543.6826,461.4375 Q544.0576,461.4375 544.292,461.7031 Q544.5264,461.9531 544.5264,462.5625 L544.5264,464.0156 Q544.5264,464.625 544.292,464.8906 Q544.0576,465.1563 543.6826,465.1563 Q543.3389,465.1563 543.1357,464.9531 Q542.9326,464.7656 542.8232,464.25 Q542.7764,463.8906 542.5889,463.7031 Q542.2607,463.3281 541.6514,463.1094 Q541.042,462.8906 540.417,462.8906 Q539.6514,462.8906 539.0107,463.2188 Q538.3857,463.5469 537.8857,464.2969 Q537.4014,465.0469 537.4014,466.0781 L537.4014,467.1719 Q537.4014,468.4063 538.292,469.2344 Q539.1826,470.0469 540.7764,470.0469 Q541.7139,470.0469 542.3701,469.7969 Q542.7607,469.6406 543.1826,469.2031 Q543.4482,468.9375 543.5889,468.8594 Q543.7451,468.7813 543.9482,468.7813 Q544.2764,468.7813 544.5264,469.0469 Q544.792,469.2969 544.792,469.6406 Q544.792,469.9844 544.4482,470.3906 Q543.9482,470.9688 543.1514,471.2969 Q542.0732,471.75 540.7764,471.75 Q539.2607,471.75 538.0576,471.125 Q537.0732,470.625 536.3857,469.5625 Q535.6982,468.4844 535.6982,467.2031 L535.6982,466.0469 Q535.6982,464.7188 536.3076,463.5781 Q536.9326,462.4219 538.0264,461.8125 Q539.1201,461.1875 540.3545,461.1875 Q541.0889,461.1875 541.7295,461.3594 Q542.3857,461.5156 542.9326,461.875 Z " fill="#000000"/><text fill="#000000" font-family="sans-serif" font-size="14" lengthAdjust="spacing" textLength="35.7998" x="560.667" y="471.7285">Teeth</text><line style="stroke:#181818;stroke-width:0.5;" x1="465.5" x2="659.1338" y1="482" y2="482"/><line style="stroke:#181818;stroke-width:0.5;" x1="465.5" x2="659.1338" y1="490" y2="490"/><ellipse cx="475.5" cy="504.3047" fill="#84BE84" rx="3" ry="3" style="stroke:#038048;stroke-width:1;"/><text fill="#000000" font-family="sans-serif" font-size="14" lengthAdjust="spacing" textLength="169.6338" x="484.5" y="508.5332">Enemy(code: Objects, ???)</text></g><!--reverse link Entity to Player--><g class="link" data-entity-1="Entity" data-entity-2="Player" data-source-line="28" data-uid="lnk6" id="link_Entity_Player"><path codeLine="28" d="M161.6188,106.3834 C146.0688,138.1134 132.69,165.4 118.31,194.75" fill="none" id="Entity-backto-Player" style="stroke:#FFFFFF;stroke-width:1;"/><polygon fill="none" points="169.54,90.22,156.231,103.743,167.0066,109.0238,169.54,90.22" style="stroke:#FFFFFF;stroke-width:1;"/></g><!--reverse link Entity to Enemy--><g class="link" data-entity-1="Entity" data-entity-2="Enemy" data-source-line="29" data-uid="lnk7" id="link_Entity_Enemy"><path codeLine="29" d="M254.4869,101.463 C277.0169,119.483 290.22,130.03 316.29,150.87" fill="none" id="Entity-backto-Enemy" style="stroke:#FFFFFF;stroke-width:1;"/><polygon fill="none" points="240.43,90.22,250.7392,106.1486,258.2345,96.7774,240.43,90.22" style="stroke:#FFFFFF;stroke-width:1;"/></g><!--reverse link Enemy to Bug--><g class="link" data-entity-1="Enemy" data-entity-2="Bug" data-source-line="30" data-uid="lnk8" id="link_Enemy_Bug"><path codeLine="30" d="M356.4211,320.6801 C327.4011,368.9901 300.63,413.53 278.88,449.73" fill="none" id="Enemy-backto-Bug" style="stroke:#FFFFFF;stroke-width:1;"/><polygon fill="none" points="365.69,305.25,351.2777,317.5904,361.5645,323.7697,365.69,305.25" style="stroke:#FFFFFF;stroke-width:1;"/></g><!--reverse link Enemy to Teeth--><g class="link" data-entity-1="Enemy" data-entity-2="Teeth" data-source-line="7" data-uid="lnk10" id="link_Enemy_Teeth"><path codeLine="7" d="M466.2342,320.7068 C495.0642,369.0168 521.64,413.53 543.24,449.73" fill="none" id="Enemy-backto-Teeth" style="stroke:#FFFFFF;stroke-width:1;"/><polygon fill="none" points="457.01,305.25,461.0819,323.7816,471.3865,317.6321,457.01,305.25" style="stroke:#FFFFFF;stroke-width:1;"/><path d="M526.5,340 L526.5,415 L666.5,415 L666.5,350 L656.5,340 L526.5,340" fill="#FEFFDD" style="stroke:#181818;stroke-width:0.5;"/><path d="M656.5,340 L656.5,350 L666.5,350 L656.5,340" fill="#FEFFDD" style="stroke:#181818;stroke-width:0.5;"/><text fill="#000000" font-family="sans-serif" font-size="13" lengthAdjust="spacing" textLength="105.498" x="532.5" y="358.4951">Not possible since</text><text fill="#000000" font-family="sans-serif" font-size="13" lengthAdjust="spacing" textLength="74.0391" x="532.5" y="374.8467">teeth doesn't</text><text fill="#000000" font-family="sans-serif" font-size="13" lengthAdjust="spacing" textLength="115.6289" x="532.5" y="391.1982">have predetermined</text><text fill="#000000" font-family="sans-serif" font-size="13" lengthAdjust="spacing" textLength="59.249" x="532.5" y="407.5498">directions.</text></g><!--SRC=[9Oqn3i8m40JxUyLI0OBa0GWf5Iqqz2YnLyJWdAESWuI0lnF2jgETMGHrSVI4QqDl5zVMCLAlBFknYo8krcOuaxd5Ip1jWuEoUwvSyjpXrDpeicrHLTLQFY8pnFvT5F-NQCf4KiIWTyWnPVJ9B3IHiAbDoRFS9vekixJrW-W7UcOENL1wY0_350b9hHIgnqyfNm00]--></g></svg>