<svg xmlns="http://www.w3.org/2000/svg" xmlns:xlink="http://www.w3.org/1999/xlink" contentStyleType="text/css" data-diagram-type="ACTIVITY" height="301px" preserveAspectRatio="none" style="width:229px;height:301px;" version="1.1" viewBox="0 0 229 301" width="229px" zoomAndPan="magnify"><defs/><g><ellipse cx="114.7061" cy="20" fill="#222222" rx="10" ry="10" style="stroke:#222222;stroke-width:1;"/><rect fill="#F1F1F1" height="35.0938" rx="12.5" ry="12.5" style="stroke:#181818;stroke-width:0.5;" width="207.4121" x="11" y="50"/><text fill="#000000" font-family="sans-serif" font-size="12" lengthAdjust="spacing" textLength="187.4121" x="21" y="72.457">Find PUML shortcode in markdown</text><rect fill="#F1F1F1" height="35.0938" rx="12.5" ry="12.5" style="stroke:#181818;stroke-width:0.5;" width="151.3789" x="39.0166" y="105.0938"/><text fill="#000000" font-family="sans-serif" font-size="12" lengthAdjust="spacing" textLength="131.3789" x="49.0166" y="127.5508">Process PUML into SVG</text><rect fill="#F1F1F1" height="35.0938" rx="12.5" ry="12.5" style="stroke:#181818;stroke-width:0.5;" width="167.4043" x="31.0039" y="160.1875"/><text fill="#000000" font-family="sans-serif" font-size="12" lengthAdjust="spacing" textLength="147.4043" x="41.0039" y="182.6445">Replace shortcode with img</text><rect fill="#F1F1F1" height="35.0938" rx="12.5" ry="12.5" style="stroke:#181818;stroke-width:0.5;" width="52.0215" x="88.6953" y="215.2813"/><text fill="#000000" font-family="sans-serif" font-size="12" lengthAdjust="spacing" textLength="32.0215" x="98.6953" y="237.7383">Done!</text><ellipse cx="114.7061" cy="280.375" fill="none" rx="10" ry="10" style="stroke:#222222;stroke-width:1.5;"/><line style="stroke:#222222;stroke-width:2.5;" x1="108.5189" x2="120.8932" y1="274.1878" y2="286.5622"/><line style="stroke:#222222;stroke-width:2.5;" x1="120.8932" x2="108.5189" y1="274.1878" y2="286.5622"/><line style="stroke:#181818;stroke-width:1;" x1="114.7061" x2="114.7061" y1="30" y2="50"/><polygon fill="#181818" points="110.7061,40,114.7061,50,118.7061,40,114.7061,44" style="stroke:#181818;stroke-width:1;"/><line style="stroke:#181818;stroke-width:1;" x1="114.7061" x2="114.7061" y1="85.0938" y2="105.0938"/><polygon fill="#181818" points="110.7061,95.0938,114.7061,105.0938,118.7061,95.0938,114.7061,99.0938" style="stroke:#181818;stroke-width:1;"/><line style="stroke:#181818;stroke-width:1;" x1="114.7061" x2="114.7061" y1="140.1875" y2="160.1875"/><polygon fill="#181818" points="110.7061,150.1875,114.7061,160.1875,118.7061,150.1875,114.7061,154.1875" style="stroke:#181818;stroke-width:1;"/><line style="stroke:#181818;stroke-width:1;" x1="114.7061" x2="114.7061" y1="195.2813" y2="215.2813"/><polygon fill="#181818" points="110.7061,205.2813,114.7061,215.2813,118.7061,205.2813,114.7061,209.2813" style="stroke:#181818;stroke-width:1;"/><line style="stroke:#181818;stroke-width:1;" x1="114.7061" x2="114.7061" y1="250.375" y2="270.375"/><polygon fill="#181818" points="110.7061,260.375,114.7061,270.375,118.7061,260.375,114.7061,264.375" style="stroke:#181818;stroke-width:1;"/><!--SRC=[JOix3i8m343tdC9Senr1i81KWM0tYTLQQUpADkhrYSJ2-ZvUMJOqRF36N6VJZvIZhceGXk9TaKHA7cYHXZDBWUbvku8lQf6r4B10Gwj5TndJC9bcSlz5BA7mU5qwlzEsOgQ_R-TOWDlSvKc53cCYAUaB]--></g></svg>