<svg xmlns="http://www.w3.org/2000/svg" xmlns:xlink="http://www.w3.org/1999/xlink" contentStyleType="text/css" data-diagram-type="CLASS" height="436px" preserveAspectRatio="none" style="width:596px;height:436px;" version="1.1" viewBox="0 0 596 436" width="596px" zoomAndPan="magnify"><defs/><g><!--class Entity--><g class="entity" data-entity="Entity" data-source-line="5" data-uid="ent0002" id="entity_Entity"><rect fill="#F1F1F1" height="83.2188" rx="2.5" ry="2.5" style="stroke:#181818;stroke-width:0.5;" width="206.5166" x="153" y="7"/><ellipse cx="234.5015" cy="23" fill="#ADD1B2" rx="11" ry="11" style="stroke:#181818;stroke-width:1;"/><path d="M237.2671,18.875 Q237.4233,18.6563 237.6108,18.5469 Q237.7983,18.4375 238.0171,18.4375 Q238.3921,18.4375 238.6265,18.7031 Q238.8608,18.9531 238.8608,19.5625 L238.8608,21.0156 Q238.8608,21.625 238.6265,21.8906 Q238.3921,22.1563 238.0171,22.1563 Q237.6733,22.1563 237.4702,21.9531 Q237.2671,21.7656 237.1577,21.25 Q237.1108,20.8906 236.9233,20.7031 Q236.5952,20.3281 235.9858,20.1094 Q235.3765,19.8906 234.7515,19.8906 Q233.9858,19.8906 233.3452,20.2188 Q232.7202,20.5469 232.2202,21.2969 Q231.7358,22.0469 231.7358,23.0781 L231.7358,24.1719 Q231.7358,25.4063 232.6265,26.2344 Q233.5171,27.0469 235.1108,27.0469 Q236.0483,27.0469 236.7046,26.7969 Q237.0952,26.6406 237.5171,26.2031 Q237.7827,25.9375 237.9233,25.8594 Q238.0796,25.7813 238.2827,25.7813 Q238.6108,25.7813 238.8608,26.0469 Q239.1265,26.2969 239.1265,26.6406 Q239.1265,26.9844 238.7827,27.3906 Q238.2827,27.9688 237.4858,28.2969 Q236.4077,28.75 235.1108,28.75 Q233.5952,28.75 232.3921,28.125 Q231.4077,27.625 230.7202,26.5625 Q230.0327,25.4844 230.0327,24.2031 L230.0327,23.0469 Q230.0327,21.7188 230.6421,20.5781 Q231.2671,19.4219 232.3608,18.8125 Q233.4546,18.1875 234.689,18.1875 Q235.4233,18.1875 236.064,18.3594 Q236.7202,18.5156 237.2671,18.875 Z " fill="#000000"/><text fill="#000000" font-family="sans-serif" font-size="14" lengthAdjust="spacing" textLength="35.0137" x="255.0015" y="28.7285">Entity</text><line style="stroke:#181818;stroke-width:0.5;" x1="154" x2="358.5166" y1="39" y2="39"/><line style="stroke:#181818;stroke-width:0.5;" x1="154" x2="358.5166" y1="47" y2="47"/><ellipse cx="164" cy="61.3047" fill="#84BE84" rx="3" ry="3" style="stroke:#038048;stroke-width:1;"/><text fill="#000000" font-family="sans-serif" font-size="14" lengthAdjust="spacing" textLength="168.8271" x="173" y="65.5332">Kill(killedBy: Objects) : void</text><ellipse cx="164" cy="78.9141" fill="#84BE84" rx="3" ry="3" style="stroke:#038048;stroke-width:1;"/><text fill="#000000" font-family="sans-serif" font-size="14" lengthAdjust="spacing" textLength="180.5166" x="173" y="83.1426">Move(velocity: Vector2): bool</text></g><!--class Player--><g class="entity" data-entity="Player" data-source-line="10" data-uid="ent0003" id="entity_Player"><rect fill="#F1F1F1" height="65.6094" rx="2.5" ry="2.5" style="stroke:#181818;stroke-width:0.5;" width="190.9375" x="7" y="194"/><ellipse cx="78.3774" cy="210" fill="#ADD1B2" rx="11" ry="11" style="stroke:#181818;stroke-width:1;"/><path d="M81.1431,205.875 Q81.2993,205.6563 81.4868,205.5469 Q81.6743,205.4375 81.8931,205.4375 Q82.2681,205.4375 82.5024,205.7031 Q82.7368,205.9531 82.7368,206.5625 L82.7368,208.0156 Q82.7368,208.625 82.5024,208.8906 Q82.2681,209.1563 81.8931,209.1563 Q81.5493,209.1563 81.3462,208.9531 Q81.1431,208.7656 81.0337,208.25 Q80.9868,207.8906 80.7993,207.7031 Q80.4712,207.3281 79.8618,207.1094 Q79.2524,206.8906 78.6274,206.8906 Q77.8618,206.8906 77.2212,207.2188 Q76.5962,207.5469 76.0962,208.2969 Q75.6118,209.0469 75.6118,210.0781 L75.6118,211.1719 Q75.6118,212.4063 76.5024,213.2344 Q77.3931,214.0469 78.9868,214.0469 Q79.9243,214.0469 80.5806,213.7969 Q80.9712,213.6406 81.3931,213.2031 Q81.6587,212.9375 81.7993,212.8594 Q81.9556,212.7813 82.1587,212.7813 Q82.4868,212.7813 82.7368,213.0469 Q83.0024,213.2969 83.0024,213.6406 Q83.0024,213.9844 82.6587,214.3906 Q82.1587,214.9688 81.3618,215.2969 Q80.2837,215.75 78.9868,215.75 Q77.4712,215.75 76.2681,215.125 Q75.2837,214.625 74.5962,213.5625 Q73.9087,212.4844 73.9087,211.2031 L73.9087,210.0469 Q73.9087,208.7188 74.5181,207.5781 Q75.1431,206.4219 76.2368,205.8125 Q77.3306,205.1875 78.5649,205.1875 Q79.2993,205.1875 79.9399,205.3594 Q80.5962,205.5156 81.1431,205.875 Z " fill="#000000"/><text fill="#000000" font-family="sans-serif" font-size="14" lengthAdjust="spacing" textLength="39.6826" x="98.8774" y="215.7285">Player</text><line style="stroke:#181818;stroke-width:0.5;" x1="8" x2="196.9375" y1="226" y2="226"/><line style="stroke:#181818;stroke-width:0.5;" x1="8" x2="196.9375" y1="234" y2="234"/><ellipse cx="18" cy="248.3047" fill="#84BE84" rx="3" ry="3" style="stroke:#038048;stroke-width:1;"/><text fill="#000000" font-family="sans-serif" font-size="14" lengthAdjust="spacing" textLength="164.9375" x="27" y="252.5332">Kill(killedBy: Objects): void</text></g><!--class Enemy--><g class="entity" data-entity="Enemy" data-source-line="14" data-uid="ent0004" id="entity_Enemy"><rect fill="#F1F1F1" height="153.6563" rx="2.5" ry="2.5" style="stroke:#181818;stroke-width:0.5;" width="356.7021" x="233" y="150"/><ellipse cx="385.3149" cy="166" fill="#ADD1B2" rx="11" ry="11" style="stroke:#181818;stroke-width:1;"/><path d="M388.0806,161.875 Q388.2368,161.6563 388.4243,161.5469 Q388.6118,161.4375 388.8306,161.4375 Q389.2056,161.4375 389.4399,161.7031 Q389.6743,161.9531 389.6743,162.5625 L389.6743,164.0156 Q389.6743,164.625 389.4399,164.8906 Q389.2056,165.1563 388.8306,165.1563 Q388.4868,165.1563 388.2837,164.9531 Q388.0806,164.7656 387.9712,164.25 Q387.9243,163.8906 387.7368,163.7031 Q387.4087,163.3281 386.7993,163.1094 Q386.1899,162.8906 385.5649,162.8906 Q384.7993,162.8906 384.1587,163.2188 Q383.5337,163.5469 383.0337,164.2969 Q382.5493,165.0469 382.5493,166.0781 L382.5493,167.1719 Q382.5493,168.4063 383.4399,169.2344 Q384.3306,170.0469 385.9243,170.0469 Q386.8618,170.0469 387.5181,169.7969 Q387.9087,169.6406 388.3306,169.2031 Q388.5962,168.9375 388.7368,168.8594 Q388.8931,168.7813 389.0962,168.7813 Q389.4243,168.7813 389.6743,169.0469 Q389.9399,169.2969 389.9399,169.6406 Q389.9399,169.9844 389.5962,170.3906 Q389.0962,170.9688 388.2993,171.2969 Q387.2212,171.75 385.9243,171.75 Q384.4087,171.75 383.2056,171.125 Q382.2212,170.625 381.5337,169.5625 Q380.8462,168.4844 380.8462,167.2031 L380.8462,166.0469 Q380.8462,164.7188 381.4556,163.5781 Q382.0806,162.4219 383.1743,161.8125 Q384.2681,161.1875 385.5024,161.1875 Q386.2368,161.1875 386.8774,161.3594 Q387.5337,161.5156 388.0806,161.875 Z " fill="#000000"/><text fill="#000000" font-family="sans-serif" font-size="14" lengthAdjust="spacing" textLength="43.5723" x="405.8149" y="171.7285">Enemy</text><line style="stroke:#181818;stroke-width:0.5;" x1="234" x2="588.7021" y1="182" y2="182"/><ellipse cx="244" cy="196.3047" fill="#84BE84" rx="3" ry="3" style="stroke:#038048;stroke-width:1;"/><text fill="#000000" font-family="sans-serif" font-size="14" lengthAdjust="spacing" textLength="307.3506" x="253" y="200.5332">Enemy(code: Objects, directions: List&lt;Direction&gt;)</text><line style="stroke:#181818;stroke-width:1;" x1="234" x2="588.7021" y1="207.6094" y2="207.6094"/><ellipse cx="244" cy="221.9141" fill="#84BE84" rx="3" ry="3" style="stroke:#038048;stroke-width:1;"/><text fill="#000000" font-family="sans-serif" font-size="14" lengthAdjust="spacing" textLength="164.9375" x="253" y="226.1426">Kill(killedBy: Objects): void</text><ellipse cx="244" cy="239.5234" fill="#84BE84" rx="3" ry="3" style="stroke:#038048;stroke-width:1;"/><text fill="#000000" font-family="sans-serif" font-size="14" lengthAdjust="spacing" textLength="180.5166" x="253" y="243.752">Move(velocity: Vector2): bool</text><ellipse cx="244" cy="257.1328" fill="#84BE84" rx="3" ry="3" style="stroke:#038048;stroke-width:1;"/><text fill="#000000" font-family="sans-serif" font-size="14" lengthAdjust="spacing" textLength="87.9307" x="253" y="261.3613">Update(): void</text><ellipse cx="244" cy="274.7422" fill="#84BE84" rx="3" ry="3" style="stroke:#038048;stroke-width:1;"/><text fill="#000000" font-family="sans-serif" font-size="14" lengthAdjust="spacing" textLength="252.8955" x="253" y="278.9707">CheckMovement(position: Vector2): bool</text><ellipse cx="244" cy="292.3516" fill="#84BE84" rx="3" ry="3" style="stroke:#038048;stroke-width:1;"/><text fill="#000000" font-family="sans-serif" font-size="14" lengthAdjust="spacing" textLength="330.7021" x="253" y="296.5801">CanMoveTo(code: Objects, movingTo: Vector2): bool</text></g><!--class Bug--><g class="entity" data-entity="Bug" data-source-line="24" data-uid="ent0005" id="entity_Bug"><rect fill="#F1F1F1" height="65.6094" rx="2.5" ry="2.5" style="stroke:#181818;stroke-width:0.5;" width="340.3506" x="241.5" y="364"/><ellipse cx="394.9702" cy="380" fill="#ADD1B2" rx="11" ry="11" style="stroke:#181818;stroke-width:1;"/><path d="M397.7358,375.875 Q397.8921,375.6563 398.0796,375.5469 Q398.2671,375.4375 398.4858,375.4375 Q398.8608,375.4375 399.0952,375.7031 Q399.3296,375.9531 399.3296,376.5625 L399.3296,378.0156 Q399.3296,378.625 399.0952,378.8906 Q398.8608,379.1563 398.4858,379.1563 Q398.1421,379.1563 397.939,378.9531 Q397.7358,378.7656 397.6265,378.25 Q397.5796,377.8906 397.3921,377.7031 Q397.064,377.3281 396.4546,377.1094 Q395.8452,376.8906 395.2202,376.8906 Q394.4546,376.8906 393.814,377.2188 Q393.189,377.5469 392.689,378.2969 Q392.2046,379.0469 392.2046,380.0781 L392.2046,381.1719 Q392.2046,382.4063 393.0952,383.2344 Q393.9858,384.0469 395.5796,384.0469 Q396.5171,384.0469 397.1733,383.7969 Q397.564,383.6406 397.9858,383.2031 Q398.2515,382.9375 398.3921,382.8594 Q398.5483,382.7813 398.7515,382.7813 Q399.0796,382.7813 399.3296,383.0469 Q399.5952,383.2969 399.5952,383.6406 Q399.5952,383.9844 399.2515,384.3906 Q398.7515,384.9688 397.9546,385.2969 Q396.8765,385.75 395.5796,385.75 Q394.064,385.75 392.8608,385.125 Q391.8765,384.625 391.189,383.5625 Q390.5015,382.4844 390.5015,381.2031 L390.5015,380.0469 Q390.5015,378.7188 391.1108,377.5781 Q391.7358,376.4219 392.8296,375.8125 Q393.9233,375.1875 395.1577,375.1875 Q395.8921,375.1875 396.5327,375.3594 Q397.189,375.5156 397.7358,375.875 Z " fill="#000000"/><text fill="#000000" font-family="sans-serif" font-size="14" lengthAdjust="spacing" textLength="24.9102" x="415.4702" y="385.7285">Bug</text><line style="stroke:#181818;stroke-width:0.5;" x1="242.5" x2="580.8506" y1="396" y2="396"/><line style="stroke:#181818;stroke-width:0.5;" x1="242.5" x2="580.8506" y1="404" y2="404"/><ellipse cx="252.5" cy="418.3047" fill="#84BE84" rx="3" ry="3" style="stroke:#038048;stroke-width:1;"/><text fill="#000000" font-family="sans-serif" font-size="14" lengthAdjust="spacing" textLength="314.3506" x="261.5" y="422.5332">Enemy(code: Objects, directions: List&lt;Directions&gt;)</text></g><!--reverse link Entity to Player--><g class="link" data-entity-1="Entity" data-entity-2="Player" data-source-line="28" data-uid="lnk6" id="link_Entity_Player"><path codeLine="28" d="M208.9459,104.0029 C181.4959,135.4629 155.93,164.77 130.59,193.81" fill="none" id="Entity-backto-Player" style="stroke:#FFFFFF;stroke-width:1;"/><polygon fill="none" points="220.78,90.44,204.4249,100.0582,213.4668,107.9476,220.78,90.44" style="stroke:#FFFFFF;stroke-width:1;"/></g><!--reverse link Entity to Enemy--><g class="link" data-entity-1="Entity" data-entity-2="Enemy" data-source-line="29" data-uid="lnk7" id="link_Entity_Enemy"><path codeLine="29" d="M304.3268,103.9656 C319.8868,121.6856 326.74,129.49 344.7,149.93" fill="none" id="Entity-backto-Enemy" style="stroke:#FFFFFF;stroke-width:1;"/><polygon fill="none" points="292.45,90.44,299.8183,107.9245,308.8354,100.0066,292.45,90.44" style="stroke:#FFFFFF;stroke-width:1;"/></g><!--reverse link Enemy to Bug--><g class="link" data-entity-1="Enemy" data-entity-2="Bug" data-source-line="30" data-uid="lnk8" id="link_Enemy_Bug"><path codeLine="30" d="M411.5,322.14 C411.5,343.15 411.5,346.82 411.5,363.83" fill="none" id="Enemy-backto-Bug" style="stroke:#FFFFFF;stroke-width:1;"/><polygon fill="none" points="411.5,304.14,405.5,322.14,417.5,322.14,411.5,304.14" style="stroke:#FFFFFF;stroke-width:1;"/></g><!--SRC=[dL5DJyCm3BtdL_YO2dhX64r8h70218V1FKsiBZIDgoJhLC7-E-d7DWrfObeEKUoyzsm_XzguLdhPG2bLNNdQE5sG9G_HInVI5xh8mW7ru3rj9y1sRI8ofgmC0PvSDB67RmRftC2piPRNwKAzx0MybL-eOiX0G4T6pw1Nwf1tQ4abge3F125_bmaeYIpRxQNVhUpH_oSzA- -E3M5px6UCk2AD1yOjQEFJmv0B0bvCY8l7VU8-6tbvdbzKz99n9in7gsL4VaeirgZgWTqahtbBmGmzd54ef1kWA_exJKETSTMApXkvt5JN6XAI8qbdtlBY9y_djPoaHb4sEJycKiLV]--></g></svg>